<?xml version="1.0" encoding="utf-8"?>
<!-- Generator: Adobe Illustrator 27.6.1, SVG Export Plug-In . SVG Version: 6.00 Build 0)  -->
<svg version="1.1" id="Layer_1" xmlns="http://www.w3.org/2000/svg" xmlns:xlink="http://www.w3.org/1999/xlink" x="0px" y="0px"
	 viewBox="0 0 2000 2000" style="enable-background:new 0 0 2000 2000;" xml:space="preserve">
<style type="text/css">
	.st0{fill:none;stroke:#8065CD;stroke-width:13;stroke-miterlimit:10;}
	.st1{fill:#8065CD;}
	.st2{fill:none;stroke:#8065CD;stroke-width:18;stroke-miterlimit:10;}
	.st3{fill:none;stroke:#8065CD;stroke-width:8;stroke-miterlimit:10;}
	.st4{fill:#FFFFFF;}
	.st5{fill:none;stroke:#000000;stroke-width:8;stroke-miterlimit:10;}
	.st6{fill:#8065CF;}
	.st7{fill:#8065CD;stroke:#000000;stroke-width:8;stroke-miterlimit:10;}
	.st8{fill:#FDE9E0;stroke:#000000;stroke-width:8;stroke-miterlimit:10;}
	.st9{fill:#B1EDB1;stroke:#000000;stroke-width:8;stroke-miterlimit:10;}
	.st10{fill:#FDE9E0;}
	.st11{fill:#B1EDB1;}
	.st12{fill:#B2EEB1;}
	.st13{fill:#8065D0;stroke:#000000;stroke-width:8;stroke-miterlimit:10;}
	.st14{fill:#FFEAE2;}
</style>
<g>
	<g>
		<circle class="st13" cx="1000" cy="1000" r="945.49"/>
	</g>
	<g id="XMLID_00000143575271748467858770000017751265931419215020_">
		<g>
			<path class="st12" d="M989.95,194.57c444.8,0,805.41,360.61,805.41,805.46c0,444.8-360.61,805.41-805.41,805.41
				c-444.85,0-805.46-360.61-805.46-805.41C184.5,555.18,545.11,194.57,989.95,194.57z"/>
		</g>
		<g>
			<path class="st5" d="M1795.36,1000.02c0,444.8-360.61,805.41-805.41,805.41c-444.85,0-805.46-360.61-805.46-805.41
				c0-444.85,360.61-805.46,805.46-805.46C1434.75,194.57,1795.36,555.18,1795.36,1000.02z"/>
		</g>
	</g>
	<g>
		<g>
			<path class="st14" d="M120.08,1027.09l0.16-9.97c2.24-0.26,4.21-1.16,5.92-2.7c1.71-1.54,3.05-3.58,4.01-6.15
				c0.96-2.56,1.47-5.53,1.52-8.91c0.08-5.01-0.64-8.99-2.15-11.94c-1.51-2.95-3.61-4.45-6.29-4.49c-2.18-0.04-3.83,0.78-4.95,2.45
				c-1.12,1.67-1.99,4.71-2.6,9.11l-1.76,12.03c-1,6.73-2.76,11.6-5.26,14.61c-2.5,3.01-6.01,4.48-10.53,4.41
				c-3.42-0.06-6.37-1.13-8.84-3.23c-2.47-2.1-4.36-5.04-5.66-8.84c-1.3-3.79-1.91-8.22-1.83-13.28c0.08-5.01,0.9-9.44,2.45-13.28
				s3.67-6.9,6.36-9.16c2.69-2.26,5.82-3.47,9.4-3.61l-0.16,9.97c-1.99,0.22-3.71,1.02-5.17,2.41c-1.46,1.39-2.62,3.27-3.48,5.64
				c-0.86,2.37-1.31,5.16-1.36,8.39c-0.07,4.56,0.61,8.22,2.05,10.97c1.44,2.75,3.46,4.15,6.04,4.19c1.98,0.03,3.52-0.75,4.61-2.34
				c1.09-1.59,1.95-4.4,2.56-8.41l1.91-12.17c0.78-5,1.77-8.94,2.98-11.82c1.21-2.88,2.81-4.93,4.79-6.14
				c1.98-1.21,4.51-1.79,7.58-1.74c3.57,0.06,6.68,1.2,9.32,3.43c2.64,2.23,4.67,5.32,6.06,9.29c1.4,3.97,2.06,8.58,1.97,13.84
				c-0.09,5.36-0.97,10.07-2.65,14.13c-1.68,4.07-3.98,7.27-6.89,9.6C127.27,1025.71,123.9,1026.95,120.08,1027.09z"/>
			<path class="st14" d="M142.88,937.33c-0.55,6.33-2.25,11.78-5.09,16.36c-2.84,4.58-6.54,8.02-11.09,10.31
				c-4.56,2.29-9.7,3.19-15.43,2.69c-5.73-0.5-10.64-2.27-14.74-5.32c-4.09-3.05-7.14-7.07-9.14-12.08c-2-5-2.73-10.67-2.18-17
				c0.55-6.33,2.25-11.78,5.09-16.36c2.84-4.58,6.54-8.02,11.09-10.31c4.56-2.29,9.7-3.19,15.44-2.69
				c5.73,0.5,10.65,2.27,14.74,5.32c4.09,3.05,7.14,7.07,9.14,12.08C142.7,925.34,143.43,931,142.88,937.33z M134.13,936.57
				c0.39-4.5-0.09-8.45-1.43-11.85c-1.35-3.4-3.45-6.14-6.31-8.21c-2.86-2.07-6.34-3.28-10.44-3.64c-4.1-0.36-7.74,0.23-10.91,1.78
				c-3.17,1.54-5.72,3.87-7.63,6.99c-1.92,3.12-3.07,6.93-3.46,11.43c-0.39,4.45,0.09,8.39,1.44,11.82c1.34,3.43,3.45,6.18,6.3,8.24
				c2.86,2.07,6.34,3.28,10.44,3.64c4.1,0.36,7.74-0.23,10.91-1.78c3.17-1.54,5.72-3.88,7.63-7.03
				C132.59,944.81,133.74,941.02,134.13,936.57z"/>
			<path class="st14" d="M98.06,843.64l8.52,1.36l-6.55,41.08l-4.67-6.17l52.1,8.31l-1.55,9.7l-55.11-8.79L98.06,843.64z
				 M115.66,888.27l6.32-39.61l8.52,1.36l-6.32,39.61L115.66,888.27z"/>
			<path class="st14" d="M99.05,837.94l12.38-54.57l8.42,1.91l-12.38,54.57L99.05,837.94z M108.58,816.45l2.17-9.58l50,11.34
				l-2.17,9.58L108.58,816.45z"/>
			<path class="st14" d="M183.6,725.85l-1.14,3.54l-44.3-32.3l3.16-9.77l47.29,35.15l-3.84,11.9l-54.43,2.19l1.42-4.39l42.86,33.64
				l-3.84,11.9l-58.92,0.82l3.18-9.84l54.81-0.2l-1.17,3.38l-43.71-33.91l3.27-10.13L183.6,725.85z"/>
			<path class="st14" d="M158.93,647.71l61.86-2.51l-4.15,9.63l-57.47,1.73l1.5-3.49l38.2,42.97l-4.15,9.63l-40.65-46.69
				L158.93,647.71z M188.18,688.51l-7.45-3.21l15.43-35.81l7.45,3.21L188.18,688.51z"/>
			<path class="st14" d="M199.09,620.82l10.47-20.13c1.51-2.9,2.05-5.55,1.61-7.93c-0.44-2.38-1.8-4.17-4.09-5.36
				c-2.33-1.21-4.59-1.31-6.77-0.29c-2.18,1.02-4.03,2.98-5.54,5.89l-11.13,21.39l-2.86-6.44l46.87,24.38l-4.53,8.71l-49.51-25.76
				l14.04-27c1.81-3.48,4.02-6.2,6.64-8.16s5.42-3.11,8.41-3.43c2.99-0.32,5.98,0.3,8.97,1.86c2.9,1.51,5.08,3.58,6.54,6.21
				c1.46,2.63,2.13,5.58,2.02,8.85c-0.11,3.27-1.07,6.65-2.88,10.12l-10.89,20.93L199.09,620.82z M208.2,613.14l5.32-10.23
				l33.41-7.62l-5.43,10.43L208.2,613.14z"/>
			<path class="st14" d="M232.92,564.53l19.25,16.33l-7.14,1.14l22.51-37l7.25,4.41l-25.29,41.58l-21.52-18.32l-26.16-10.69
				l25.1-41.26l7.25,4.41l-22.32,36.68l-2.27-6.87L232.92,564.53z M246.32,534.62l6.99,4.25l-20.26,33.31l-6.99-4.25L246.32,534.62z
				"/>
			<path class="st14" d="M274.85,500.32l17.75,17.94l-7.21,0.52l25.64-34.9l6.84,5.02l-28.81,39.22l-19.85-20.12l-25.13-12.92
				l28.59-38.92l6.84,5.02l-25.42,34.6l-1.66-7.04L274.85,500.32z M290.81,471.69l6.6,4.85l-23.09,31.42l-6.6-4.85L290.81,471.69z"
				/>
			<path class="st14" d="M351.9,439.06l-2.27,3.35l-38.3-32.61l6.17-7.25L360,438.73l-8.1,9.52l-63.68-2.81l2.22-3.29l38.64,32.9
				l-6.17,7.25l-42.49-36.18l8.3-9.75L351.9,439.06z"/>
			<path class="st14" d="M389.3,374.45c2.42,2.49,4.26,5.27,5.51,8.33c1.25,3.07,1.86,6.27,1.82,9.6c-0.03,3.33-0.78,6.67-2.25,10
				c-1.47,3.33-3.75,6.55-6.83,9.64c-3.12,3.12-6.49,5.55-10.1,7.27s-7.29,2.69-11.05,2.9c-3.75,0.21-7.44-0.4-11.05-1.83
				c-3.61-1.43-7-3.73-10.16-6.88c-3.16-3.15-5.45-6.55-6.88-10.18c-1.42-3.63-2.02-7.33-1.8-11.1c0.23-3.77,1.21-7.48,2.96-11.13
				c1.75-3.65,4.24-7.09,7.46-10.32c4.03-4.04,8.22-6.92,12.57-8.64c4.35-1.72,8.59-2.37,12.73-1.96c4.14,0.42,7.89,1.89,11.26,4.41
				l-7.04,7.06c-2.25-1.47-4.69-2.25-7.34-2.33c-2.65-0.08-5.34,0.5-8.08,1.77c-2.74,1.26-5.42,3.21-8.05,5.85
				c-3.08,3.09-5.19,6.34-6.31,9.74s-1.23,6.8-0.33,10.18c0.9,3.38,2.86,6.58,5.88,9.6c3.02,3.01,6.26,4.97,9.71,5.86
				c3.46,0.89,6.94,0.74,10.44-0.46c3.51-1.2,6.86-3.39,10.04-6.59c3.08-3.09,5.26-6.32,6.52-9.69c1.26-3.37,1.62-6.66,1.07-9.87
				c-0.55-3.21-2.01-6.11-4.4-8.71L389.3,374.45z M374.85,394.93l-5.27-5.26l19.93-19.96l19.43,19.4l-5.15,5.16l-17.22-15.51
				l3.84,0.58L374.85,394.93z"/>
			<path class="st14" d="M378.95,341.57l7.29-6.58l37.38,41.45l-7.29,6.58L378.95,341.57z"/>
			<path class="st14" d="M468.01,331.58l-2.84,2.88l-31.7-39.06l7.4-6l35.17,43.33l-9.71,7.88l-62.09-14.39l2.78-2.83L439,362.79
				l-7.4,6l-35.17-43.33l9.94-8.07L468.01,331.58z"/>
			<path class="st14" d="M478.47,296.8l11.05,22.69l-7-1.83l35.5-24.81l4.86,6.95l-39.89,27.88l-12.33-25.43l-19.65-20.31
				l39.58-27.67l4.86,6.95l-35.19,24.6l0.69-7.2L478.47,296.8z M502.78,274.82l4.69,6.71l-31.96,22.34l-4.69-6.71L502.78,274.82z"/>
			<path class="st14" d="M525.86,265.12l9.56,23.36l-6.86-2.28l37.03-22.46l4.4,7.25l-41.61,25.24l-10.66-26.17l-18.29-21.54
				l41.29-25.05l4.4,7.25l-36.71,22.27l1.15-7.14L525.86,265.12z M551.54,244.76l4.25,7l-33.34,20.22l-4.25-7L551.54,244.76z"/>
			<path class="st14" d="M569.31,236.51l20.15-10.45c2.91-1.51,4.87-3.36,5.88-5.56c1.01-2.2,0.92-4.45-0.27-6.74
				c-1.21-2.33-3-3.71-5.37-4.13s-5.01,0.12-7.91,1.63l-21.4,11.1l1.36-6.91l24.32,46.9l-8.72,4.52l-25.69-49.54l27.02-14.01
				c3.48-1.8,6.85-2.76,10.13-2.86c3.27-0.1,6.22,0.57,8.85,2.03c2.63,1.46,4.72,3.69,6.27,6.68c1.51,2.91,2.1,5.86,1.78,8.84
				c-0.32,2.99-1.47,5.79-3.44,8.4c-1.97,2.61-4.69,4.82-8.17,6.63l-20.94,10.86L569.31,236.51z M581.17,235.47l10.24-5.31
				l31.71,12.98l-10.44,5.41L581.17,235.47z"/>
			<path class="st14" d="M606.73,189.65l8.92-4.11l23.33,50.7l-8.92,4.11L606.73,189.65z"/>
			<path class="st14" d="M694.74,206.68l-3.57,1.9l-18.59-46.74l8.85-3.52l20.62,51.86l-11.62,4.62l-54.96-32.28l3.5-1.87
				l18.75,47.16l-8.85,3.52l-20.62-51.86l11.89-4.73L694.74,206.68z"/>
			<path class="st14" d="M758.04,167.14c0.97,3.33,1.29,6.65,0.96,9.94c-0.34,3.3-1.3,6.41-2.89,9.34s-3.82,5.52-6.68,7.78
				c-2.86,2.25-6.38,4.02-10.55,5.31c-4.22,1.3-8.33,1.86-12.33,1.69c-4-0.17-7.7-1.04-11.12-2.62c-3.42-1.57-6.38-3.84-8.9-6.8
				c-2.52-2.96-4.44-6.58-5.75-10.84c-1.31-4.27-1.75-8.34-1.3-12.21c0.44-3.87,1.65-7.42,3.62-10.65c1.97-3.22,4.58-6.04,7.84-8.44
				c3.26-2.4,7.07-4.27,11.43-5.62c5.45-1.68,10.5-2.26,15.15-1.74c4.65,0.52,8.7,1.93,12.16,4.24c3.46,2.31,6.09,5.37,7.88,9.18
				l-9.53,2.93c-1.29-2.35-3.09-4.19-5.39-5.5c-2.3-1.32-4.95-2.06-7.96-2.22c-3.01-0.17-6.29,0.3-9.85,1.39
				c-4.17,1.28-7.55,3.17-10.14,5.65s-4.27,5.43-5.07,8.84c-0.79,3.41-0.56,7.15,0.69,11.23s3.2,7.32,5.83,9.73
				c2.63,2.41,5.78,3.91,9.44,4.49c3.66,0.59,7.64,0.22,11.96-1.11c4.17-1.28,7.61-3.12,10.3-5.5s4.55-5.12,5.57-8.21
				c1.02-3.09,1.09-6.34,0.19-9.75L758.04,167.14z M735.67,178.45l-2.19-7.11l26.96-8.29l8.07,26.25l-6.97,2.14l-7.94-21.77
				l3.12,2.31L735.67,178.45z"/>
			<path class="st14" d="M817.4,121.35l37.2,49.49l-10.29,2.05l-34.06-46.32l3.72-0.74l-13.67,55.85l-10.29,2.05l15.34-59.98
				L817.4,121.35z M800.43,168.6l-1.59-7.95l38.24-7.63l1.59,7.95L800.43,168.6z"/>
			<path class="st14" d="M909.85,158.22l-3.94,0.92l-5.98-49.95l9.46-1.13l6.63,55.41l-12.41,1.49l-44.84-45.29l3.86-0.91
				l6.03,50.39l-9.46,1.13l-6.63-55.41l12.71-1.52L909.85,158.22z"/>
			<path class="st14" d="M949.21,105.88c6.34-0.27,11.96,0.66,16.84,2.79c4.88,2.13,8.75,5.23,11.6,9.31
				c2.85,4.08,4.4,8.89,4.63,14.44c0.23,5.55-0.9,10.48-3.4,14.78c-2.5,4.3-6.09,7.72-10.78,10.25c-4.69,2.53-10.2,3.93-16.54,4.2
				l-25.2,1.06l-2.35-55.76L949.21,105.88z M936.03,158.87l-5.65-4.97l21.49-0.91c4.26-0.18,7.96-1.14,11.09-2.89
				c3.13-1.74,5.51-4.11,7.15-7.08c1.64-2.97,2.38-6.37,2.21-10.19c-0.16-3.87-1.19-7.2-3.07-10c-1.88-2.8-4.45-4.94-7.72-6.42
				c-3.26-1.47-7.03-2.12-11.29-1.94l-21.49,0.91l5.21-5.43L936.03,158.87z"/>
			<path class="st14" d="M1070.03,141.76c-0.75,4.53-2.57,8.47-5.46,11.81s-6.57,5.86-11.04,7.55c-4.47,1.69-9.5,2.38-15.09,2.07
				c-6.24-0.34-11.65-1.86-16.22-4.55c-4.57-2.69-8.05-6.27-10.44-10.75c-2.39-4.48-3.42-9.59-3.1-15.34s1.91-10.71,4.77-14.9
				c2.86-4.19,6.72-7.37,11.56-9.54c4.84-2.17,10.38-3.08,16.62-2.73c5.6,0.31,10.52,1.55,14.77,3.72
				c4.25,2.17,7.63,5.07,10.14,8.68c2.51,3.62,3.88,7.74,4.12,12.38l-9.88-0.55c-0.38-3-1.42-5.62-3.11-7.85
				c-1.69-2.23-3.94-4.01-6.75-5.33c-2.81-1.32-6.1-2.09-9.86-2.3c-4.36-0.24-8.18,0.37-11.47,1.83c-3.29,1.46-5.88,3.65-7.78,6.58
				c-1.9,2.93-2.96,6.44-3.19,10.56c-0.23,4.11,0.44,7.73,2.01,10.84c1.57,3.12,3.9,5.58,7.01,7.39c3.1,1.81,6.84,2.84,11.2,3.08
				c3.76,0.21,7.11-0.18,10.05-1.16c2.94-0.98,5.37-2.5,7.29-4.55c1.93-2.05,3.24-4.55,3.95-7.5L1070.03,141.76z"/>
			<path class="st14" d="M1104.24,169.45c-6.29-0.85-11.66-2.79-16.11-5.84c-4.45-3.05-7.71-6.9-9.78-11.56
				c-2.08-4.66-2.73-9.84-1.97-15.54c0.77-5.7,2.77-10.53,6-14.47c3.23-3.95,7.4-6.8,12.49-8.57c5.09-1.77,10.79-2.23,17.08-1.38
				c6.29,0.85,11.66,2.79,16.11,5.84c4.44,3.05,7.71,6.9,9.78,11.56s2.73,9.84,1.97,15.54c-0.77,5.7-2.77,10.53-6,14.47
				c-3.23,3.95-7.4,6.8-12.49,8.57C1116.23,169.83,1110.54,170.29,1104.24,169.45z M1105.41,160.75c4.47,0.6,8.44,0.31,11.91-0.88
				s6.29-3.16,8.49-5.92c2.2-2.76,3.57-6.18,4.12-10.26c0.55-4.08,0.13-7.74-1.27-10.98c-1.39-3.24-3.6-5.89-6.63-7.95
				c-3.03-2.06-6.78-3.39-11.25-3.99c-4.42-0.59-8.38-0.3-11.87,0.88c-3.49,1.18-6.33,3.16-8.53,5.91
				c-2.2,2.76-3.57,6.18-4.12,10.26c-0.55,4.08-0.13,7.74,1.27,10.98c1.39,3.24,3.61,5.89,6.67,7.95
				C1097.25,158.82,1100.99,160.15,1105.41,160.75z"/>
			<path class="st14" d="M1228.68,135.93l-12.39,54.42l-9.14-2.08l11.72-51.52l2.94,0.82l-37.02,45.61l-10.23-2.33l-13.65-57.06
				l3.01,0.53l-11.71,51.44l-9.14-2.08l12.39-54.42l14.66,3.34l12.93,55.83l-4.79-1.09l35.75-44.75L1228.68,135.93z"/>
			<path class="st14" d="M1270.99,149.34c3.97,1.26,7.19,3.06,9.65,5.4s4.08,5.03,4.86,8.06c0.78,3.03,0.65,6.2-0.4,9.51
				c-1.05,3.31-2.77,5.98-5.15,8.01c-2.39,2.03-5.26,3.29-8.62,3.79s-7.02,0.11-11-1.15l-23.9-7.58l2.57-8.09l23.55,7.47
				c3.21,1.02,5.98,1.04,8.3,0.06c2.31-0.98,3.9-2.82,4.75-5.52c0.86-2.7,0.62-5.11-0.71-7.25c-1.33-2.14-3.6-3.72-6.81-4.74
				l-22.63-7.18l5.67-3.35l-15.79,49.79l-9.36-2.97l16.88-53.2L1270.99,149.34z"/>
			<path class="st14" d="M1296.56,191.87c-1.22,3.09-1.66,6.01-1.31,8.76c0.35,2.75,1.45,5.2,3.29,7.35
				c1.84,2.14,4.38,3.86,7.61,5.14c3.27,1.3,6.31,1.79,9.1,1.48c2.79-0.31,5.26-1.35,7.4-3.11s3.82-4.2,5.05-7.29l11.73-29.61
				l9.13,3.62l-11.87,29.96c-1.81,4.57-4.43,8.16-7.87,10.77c-3.44,2.62-7.38,4.15-11.83,4.6c-4.45,0.45-9.14-0.3-14.08-2.25
				c-4.89-1.94-8.81-4.6-11.77-7.98c-2.96-3.38-4.79-7.21-5.5-11.46c-0.71-4.26-0.17-8.67,1.64-13.24l11.87-29.96l9.13,3.62
				L1296.56,191.87z"/>
			<path class="st14" d="M1356.53,181.65l50.46,24.2l-3.73,7.78l-50.46-24.2L1356.53,181.65z M1375.37,195.71l8.86,4.25
				l-22.17,46.23l-8.86-4.25L1375.37,195.71z"/>
			<path class="st14" d="M1411.96,240.54l-15.67,19.78l-1.38-7.1l37.73,21.26l-4.16,7.39l-42.4-23.89l17.59-22.12l9.81-26.5
				l42.08,23.7l-4.16,7.39l-37.41-21.07l6.79-2.5L1411.96,240.54z M1442.3,252.93l-4.02,7.13l-33.97-19.14l4.02-7.13L1442.3,252.93z
				"/>
			<path class="st14" d="M1458.17,264.36l18.99,12.43c2.74,1.79,5.32,2.59,7.73,2.39c2.41-0.2,4.33-1.38,5.74-3.54
				c1.44-2.2,1.76-4.44,0.97-6.71c-0.8-2.27-2.56-4.3-5.3-6.1l-20.17-13.21l6.69-2.2l-28.94,44.2l-8.22-5.38l30.57-46.69
				l25.46,16.67c3.28,2.15,5.77,4.62,7.46,7.42c1.69,2.8,2.55,5.7,2.57,8.71c0.02,3.01-0.9,5.92-2.75,8.74
				c-1.79,2.74-4.07,4.7-6.83,5.89c-2.76,1.18-5.77,1.56-9.01,1.13c-3.24-0.43-6.51-1.73-9.78-3.87l-19.73-12.92L1458.17,264.36z
				 M1464.9,274.19l9.65,6.32l4.24,34l-9.84-6.44L1464.9,274.19z"/>
			<path class="st14" d="M1508.36,313.51l7.81,6.19c-1.15,1.93-1.64,4.05-1.46,6.34c0.18,2.29,0.99,4.6,2.44,6.92
				c1.45,2.32,3.5,4.53,6.14,6.62c3.93,3.11,7.52,4.96,10.79,5.56c3.26,0.59,5.73-0.16,7.39-2.26c1.36-1.71,1.71-3.52,1.07-5.42
				c-0.64-1.9-2.53-4.44-5.65-7.61l-8.48-8.71c-4.73-4.89-7.53-9.25-8.4-13.07c-0.87-3.82,0.1-7.5,2.91-11.04
				c2.13-2.68,4.77-4.37,7.94-5.05c3.17-0.68,6.66-0.39,10.46,0.88c3.8,1.27,7.69,3.48,11.65,6.62c3.93,3.11,6.94,6.45,9.05,10.02
				c2.11,3.57,3.24,7.11,3.4,10.62s-0.79,6.73-2.86,9.65l-7.81-6.19c1.04-1.71,1.45-3.57,1.24-5.57c-0.21-2-1-4.07-2.36-6.19
				c-1.36-2.12-3.3-4.18-5.83-6.19c-3.58-2.83-6.9-4.52-9.96-5.04s-5.4,0.22-7,2.24c-1.23,1.56-1.55,3.25-0.95,5.09
				c0.6,1.84,2.31,4.22,5.12,7.14l8.5,8.92c3.5,3.66,6.02,6.84,7.57,9.56c1.55,2.72,2.2,5.23,1.96,7.53
				c-0.25,2.31-1.32,4.67-3.23,7.08c-2.22,2.8-5.01,4.57-8.39,5.31c-3.38,0.74-7.06,0.46-11.06-0.84c-4-1.3-8.06-3.59-12.18-6.85
				c-4.2-3.33-7.4-6.89-9.61-10.7c-2.21-3.8-3.35-7.58-3.43-11.31C1505.07,320.05,1506.14,316.62,1508.36,313.51z"/>
			<path class="st14" d="M1603.21,389.43c-3.45,3.03-7.35,4.92-11.71,5.67c-4.36,0.75-8.8,0.36-13.32-1.17
				c-4.53-1.53-8.85-4.18-12.98-7.97c-4.61-4.23-7.82-8.83-9.65-13.8c-1.83-4.98-2.25-9.95-1.25-14.93c1-4.98,3.44-9.58,7.33-13.83
				c3.89-4.24,8.27-7.07,13.14-8.49c4.87-1.42,9.87-1.43,14.98-0.04c5.12,1.4,9.98,4.21,14.58,8.43c4.13,3.79,7.15,7.87,9.06,12.25
				c1.91,4.38,2.68,8.76,2.33,13.15c-0.36,4.39-1.91,8.45-4.66,12.18l-7.29-6.69c1.61-2.56,2.47-5.24,2.58-8.04
				c0.11-2.8-0.5-5.6-1.84-8.4c-1.33-2.8-3.39-5.48-6.17-8.03c-3.22-2.95-6.56-4.91-10.02-5.86c-3.46-0.96-6.86-0.91-10.19,0.15
				s-6.38,3.1-9.16,6.14c-2.78,3.03-4.56,6.25-5.32,9.66c-0.77,3.4-0.52,6.79,0.73,10.16s3.49,6.53,6.7,9.48
				c2.78,2.55,5.61,4.38,8.5,5.48c2.89,1.1,5.73,1.47,8.53,1.11c2.79-0.37,5.4-1.46,7.81-3.29L1603.21,389.43z"/>
			<path class="st14" d="M1633.03,372.31l6.89,7l-39.78,39.15l-6.89-7L1633.03,372.31z"/>
			<path class="st14" d="M1636.96,416.7l-21.17,13.74l0.96-7.17l28.97,32.2l-6.31,5.67l-32.55-36.18l23.73-15.34l17.76-21.98
				l32.3,35.9l-6.31,5.67l-28.72-31.92l7.23-0.2L1636.96,416.7z M1661.75,438.14l-6.08,5.47l-26.08-28.99l6.08-5.48L1661.75,438.14z
				"/>
			<path class="st14" d="M1681.28,504.57l-2.82-2.9l39.71-30.88l5.85,7.52l-44.06,34.26l-7.67-9.87l15.68-61.78l2.77,2.84
				l-40.06,31.15l-5.85-7.52l44.06-34.26l7.86,10.1L1681.28,504.57z"/>
			<path class="st14" d="M1736.82,557.98c-4.08,2.1-8.33,2.98-12.74,2.65c-4.41-0.33-8.62-1.79-12.64-4.37
				c-4.02-2.58-7.57-6.21-10.66-10.89c-3.44-5.22-5.44-10.46-6.01-15.74c-0.57-5.27,0.24-10.2,2.42-14.79
				c2.18-4.58,5.67-8.46,10.47-11.63s9.74-4.85,14.81-5.04c5.07-0.2,9.92,1.01,14.54,3.6c4.62,2.6,8.66,6.5,12.1,11.72
				c3.09,4.68,5.02,9.37,5.81,14.08c0.79,4.71,0.48,9.15-0.93,13.32c-1.41,4.17-3.91,7.73-7.48,10.68l-5.45-8.26
				c2.18-2.09,3.67-4.48,4.45-7.17c0.78-2.69,0.87-5.55,0.26-8.59c-0.61-3.04-1.95-6.14-4.03-9.29c-2.4-3.65-5.17-6.35-8.3-8.12
				c-3.13-1.77-6.43-2.55-9.92-2.33c-3.48,0.22-6.94,1.46-10.38,3.72c-3.44,2.27-5.94,4.96-7.51,8.07
				c-1.57,3.12-2.16,6.46-1.76,10.03c0.4,3.57,1.79,7.18,4.2,10.83c2.08,3.15,4.38,5.61,6.92,7.38c2.54,1.77,5.2,2.82,8,3.15
				c2.8,0.32,5.59-0.11,8.38-1.29L1736.82,557.98z"/>
			<path class="st14" d="M1752,573.17l-23.67,8.77l2.5-6.78l21.21,37.76l-7.4,4.16l-23.84-42.43l26.51-9.78l22.14-17.56l23.66,42.1
				l-7.4,4.16l-21.03-37.43l7.1,1.39L1752,573.17z M1771.5,599.52l-7.14,4.01l-19.1-33.99l7.14-4.01L1771.5,599.52z"/>
			<path class="st14" d="M1772.17,631.07l4.09,9.09c-1.91,1.19-3.32,2.84-4.22,4.96c-0.9,2.12-1.24,4.54-1.01,7.27
				c0.22,2.73,1.02,5.63,2.41,8.71c2.06,4.57,4.4,7.87,7.02,9.9c2.62,2.03,5.16,2.49,7.6,1.39c1.99-0.9,3.14-2.34,3.44-4.32
				c0.3-1.99-0.2-5.1-1.52-9.35l-3.52-11.63c-1.95-6.52-2.44-11.67-1.45-15.46c0.99-3.79,3.54-6.61,7.66-8.46
				c3.12-1.4,6.25-1.68,9.38-0.83c3.13,0.85,6.09,2.71,8.88,5.59c2.79,2.88,5.22,6.62,7.3,11.24c2.06,4.57,3.2,8.92,3.43,13.06
				c0.23,4.14-0.39,7.81-1.86,11c-1.47,3.19-3.8,5.61-6.97,7.26l-4.09-9.09c1.71-1.04,2.93-2.5,3.66-4.38
				c0.73-1.88,0.98-4.07,0.75-6.58c-0.23-2.51-1.01-5.23-2.33-8.17c-1.87-4.16-4.05-7.18-6.52-9.06c-2.48-1.88-4.89-2.29-7.24-1.23
				c-1.81,0.81-2.87,2.18-3.18,4.08c-0.31,1.91,0.11,4.81,1.26,8.69l3.45,11.83c1.42,4.85,2.2,8.84,2.33,11.97
				c0.13,3.12-0.45,5.66-1.73,7.59c-1.28,1.94-3.32,3.53-6.12,4.8c-3.26,1.47-6.56,1.75-9.89,0.86s-6.49-2.83-9.44-5.83
				s-5.51-6.89-7.67-11.69c-2.2-4.89-3.4-9.53-3.61-13.92s0.51-8.27,2.16-11.62C1766.24,635.37,1768.77,632.82,1772.17,631.07z"/>
			<path class="st14" d="M1789.45,721.98c-2.17-5.97-2.93-11.63-2.29-16.98c0.64-5.35,2.55-10.03,5.71-14.03
				c3.17-4,7.45-6.98,12.86-8.94c5.41-1.96,10.61-2.43,15.61-1.39c4.99,1.04,9.46,3.4,13.38,7.1c3.93,3.69,6.97,8.53,9.14,14.5
				c2.17,5.97,2.93,11.63,2.29,16.98c-0.64,5.35-2.55,10.03-5.71,14.03c-3.17,4-7.46,6.98-12.86,8.94
				c-5.41,1.96-10.61,2.43-15.61,1.39c-5-1.04-9.46-3.4-13.38-7.1C1794.66,732.79,1791.61,727.95,1789.45,721.98z M1797.7,718.99
				c1.54,4.24,3.64,7.62,6.29,10.14c2.66,2.52,5.71,4.11,9.18,4.78c3.46,0.67,7.13,0.3,11-1.1c3.87-1.41,6.92-3.47,9.15-6.21
				c2.23-2.74,3.55-5.92,3.97-9.56s-0.14-7.58-1.68-11.82c-1.52-4.2-3.62-7.57-6.28-10.11c-2.66-2.54-5.73-4.15-9.19-4.82
				c-3.46-0.67-7.13-0.3-11,1.1c-3.87,1.41-6.92,3.47-9.15,6.21c-2.23,2.73-3.55,5.93-3.96,9.59
				C1795.62,710.86,1796.18,714.79,1797.7,718.99z"/>
			<path class="st14" d="M1840.35,809.62c-4.53,0.73-8.84,0.26-12.93-1.42s-7.65-4.36-10.67-8.06c-3.02-3.7-5.28-8.25-6.77-13.65
				c-1.66-6.03-1.95-11.63-0.85-16.82c1.09-5.19,3.38-9.63,6.87-13.32c3.49-3.69,8-6.3,13.55-7.83c5.55-1.53,10.76-1.6,15.65-0.22
				c4.88,1.38,9.12,4.02,12.72,7.92c3.59,3.9,6.22,8.86,7.88,14.89c1.49,5.4,1.88,10.47,1.18,15.19c-0.71,4.72-2.37,8.85-5,12.38
				c-2.63,3.53-6.1,6.14-10.42,7.85l-2.63-9.54c2.72-1.32,4.87-3.13,6.45-5.44c1.57-2.31,2.54-5.01,2.9-8.09
				c0.36-3.08,0.04-6.44-0.96-10.08c-1.16-4.21-2.95-7.64-5.38-10.29c-2.43-2.65-5.33-4.41-8.71-5.28
				c-3.38-0.87-7.05-0.76-11.02,0.34c-3.97,1.09-7.18,2.88-9.64,5.36c-2.46,2.48-4.05,5.48-4.78,9c-0.73,3.52-0.51,7.38,0.65,11.59
				c1,3.63,2.43,6.69,4.3,9.16c1.86,2.47,4.08,4.29,6.64,5.46s5.35,1.63,8.36,1.36L1840.35,809.62z"/>
			<path class="st14" d="M1874.71,810.98l2.12,9.59l-54.5,12.03l-2.12-9.59L1874.71,810.98z"/>
			<path class="st14" d="M1854.44,850.64l-25.24,0.38l4.62-5.56l7.41,42.67l-8.36,1.45l-8.33-47.95l28.26-0.37l26.73-9.17
				l8.26,47.58l-8.36,1.45l-7.34-42.3l6.23,3.68L1854.44,850.64z M1864.03,881.98l-8.07,1.4l-6.67-38.42l8.06-1.4L1864.03,881.98z"
				/>
			<path class="st14" d="M1886.89,910.44l1.04,9.77l-50.98,5.44l-1.04-9.77L1886.89,910.44z M1888.95,887.02l5.93,55.64l-8.58,0.92
				l-5.94-55.64L1888.95,887.02z"/>
			<path class="st14" d="M1840.5,975.36l26.62-0.98l0.36,9.82l-26.62,0.98L1840.5,975.36z M1895.31,946.98l0.41,11.08L1868,981.87
				l-0.19-5.28l29.39,21.7l0.41,11.08l-36.21-26.74l-0.3-6.24L1895.31,946.98z"/>
		</g>
	</g>
	<g>
		<g>
			<path class="st14" d="M523.61,1750.07c-2.91,3.55-6.45,6.05-10.63,7.51c-4.18,1.45-8.62,1.8-13.33,1.03
				c-4.71-0.76-9.42-2.68-14.11-5.74c-5.24-3.42-9.16-7.43-11.78-12.04c-2.62-4.61-3.85-9.45-3.68-14.52
				c0.17-5.07,1.83-10.02,4.97-14.84c3.14-4.82,7-8.33,11.58-10.53c4.57-2.2,9.5-3.03,14.77-2.49c5.27,0.54,10.53,2.52,15.77,5.93
				c4.7,3.06,8.34,6.6,10.94,10.6c2.6,4,4.08,8.2,4.45,12.59c0.37,4.39-0.5,8.65-2.61,12.78l-8.29-5.41
				c1.17-2.79,1.58-5.57,1.23-8.35c-0.35-2.78-1.41-5.44-3.19-7.99c-1.77-2.55-4.24-4.85-7.4-6.91c-3.66-2.39-7.27-3.77-10.85-4.14
				s-6.92,0.23-10.02,1.81c-3.11,1.59-5.79,4.1-8.04,7.55c-2.25,3.45-3.47,6.92-3.67,10.4c-0.2,3.48,0.59,6.79,2.38,9.9
				c1.79,3.12,4.51,5.87,8.16,8.26c3.16,2.06,6.25,3.4,9.29,4.01c3.03,0.62,5.9,0.51,8.59-0.3c2.7-0.82,5.08-2.33,7.17-4.52
				L523.61,1750.07z"/>
			<path class="st14" d="M546.17,1789.06c-5.58-3.04-9.89-6.78-12.95-11.22c-3.06-4.44-4.73-9.2-5-14.3
				c-0.27-5.09,0.97-10.17,3.72-15.22c2.75-5.05,6.35-8.84,10.78-11.37c4.43-2.53,9.34-3.71,14.73-3.54
				c5.39,0.17,10.87,1.77,16.45,4.81c5.57,3.04,9.89,6.78,12.95,11.22c3.06,4.44,4.73,9.2,5,14.3c0.27,5.09-0.97,10.17-3.72,15.22
				c-2.75,5.05-6.35,8.84-10.78,11.37c-4.43,2.53-9.34,3.71-14.73,3.54C557.23,1793.71,551.75,1792.1,546.17,1789.06z
				 M550.37,1781.35c3.96,2.16,7.77,3.31,11.43,3.44c3.66,0.13,7.01-0.7,10.05-2.49c3.04-1.79,5.54-4.49,7.51-8.11
				c1.97-3.61,2.89-7.18,2.75-10.71c-0.14-3.52-1.26-6.79-3.35-9.79s-5.12-5.59-9.08-7.75c-3.92-2.14-7.72-3.28-11.4-3.42
				c-3.68-0.14-7.04,0.68-10.08,2.47c-3.04,1.79-5.54,4.49-7.51,8.11c-1.97,3.62-2.89,7.19-2.75,10.71
				c0.14,3.52,1.27,6.79,3.38,9.81C543.44,1776.64,546.45,1779.21,550.37,1781.35z"/>
			<path class="st14" d="M635.08,1824.19l-3.85-1.23l20.47-45.95l8.7,3.88l-22.71,50.98l-11.42-5.09l-15.28-61.88l3.78,1.2
				l-20.65,46.36l-8.7-3.88l22.71-50.98l11.69,5.21L635.08,1824.19z"/>
			<path class="st14" d="M714.23,1836.11c-1.99,4.14-4.85,7.4-8.56,9.8c-3.72,2.39-7.96,3.77-12.72,4.14
				c-4.76,0.37-9.78-0.39-15.07-2.26c-5.89-2.09-10.65-5.06-14.29-8.93c-3.63-3.86-5.96-8.28-6.99-13.25
				c-1.03-4.97-0.58-10.17,1.34-15.59c1.92-5.42,4.84-9.74,8.77-12.96c3.93-3.21,8.52-5.18,13.77-5.9
				c5.25-0.72,10.83-0.03,16.72,2.05c5.28,1.87,9.66,4.45,13.13,7.73c3.47,3.28,5.9,7.01,7.29,11.19c1.39,4.18,1.55,8.52,0.47,13.04
				l-9.33-3.3c0.48-2.99,0.22-5.79-0.77-8.41c-1-2.61-2.65-4.95-4.98-7.01c-2.32-2.06-5.26-3.72-8.82-4.98
				c-4.12-1.46-7.95-1.95-11.52-1.47c-3.56,0.47-6.67,1.85-9.31,4.12c-2.65,2.27-4.66,5.35-6.03,9.23
				c-1.38,3.88-1.75,7.54-1.12,10.97c0.63,3.43,2.17,6.45,4.64,9.07s5.76,4.65,9.88,6.1c3.55,1.26,6.88,1.83,9.97,1.72
				c3.09-0.12,5.85-0.89,8.28-2.32c2.43-1.43,4.39-3.46,5.9-6.08L714.23,1836.11z"/>
			<path class="st14" d="M745.4,1868.69c-6.14-1.64-11.21-4.25-15.24-7.84c-4.02-3.59-6.77-7.83-8.23-12.71
				c-1.47-4.88-1.46-10.11,0.03-15.67c1.48-5.56,4.08-10.09,7.79-13.59c3.71-3.5,8.2-5.81,13.48-6.91
				c5.28-1.11,10.98-0.84,17.12,0.8c6.13,1.64,11.21,4.25,15.24,7.84c4.02,3.59,6.77,7.83,8.23,12.71
				c1.47,4.89,1.46,10.11-0.03,15.67c-1.49,5.56-4.08,10.09-7.79,13.59c-3.71,3.5-8.2,5.81-13.48,6.91
				C757.24,1870.6,751.54,1870.33,745.4,1868.69z M747.67,1860.21c4.36,1.17,8.34,1.38,11.92,0.64c3.59-0.74,6.64-2.33,9.17-4.79
				c2.53-2.46,4.33-5.67,5.39-9.65c1.06-3.98,1.11-7.66,0.14-11.05c-0.97-3.39-2.82-6.3-5.56-8.73c-2.74-2.43-6.29-4.22-10.65-5.39
				c-4.31-1.15-8.28-1.36-11.89-0.63c-3.61,0.73-6.68,2.32-9.21,4.78c-2.53,2.46-4.33,5.67-5.39,9.65
				c-1.06,3.98-1.11,7.66-0.14,11.05c0.97,3.39,2.83,6.3,5.6,8.74C739.81,1857.26,743.35,1859.06,747.67,1860.21z"/>
			<path class="st14" d="M800.39,1849.36l22.3,4.2c3.22,0.61,5.9,0.35,8.05-0.75c2.15-1.11,3.47-2.93,3.94-5.47
				c0.49-2.58-0.07-4.77-1.68-6.56c-1.61-1.79-4.02-2.99-7.24-3.6l-23.69-4.46l5.33-4.6l-9.78,51.92l-9.65-1.82l10.33-54.85
				l29.91,5.63c3.85,0.72,7.1,2.06,9.74,3.99c2.64,1.94,4.54,4.29,5.71,7.06c1.17,2.77,1.44,5.81,0.82,9.13
				c-0.61,3.22-1.96,5.9-4.05,8.06c-2.1,2.15-4.73,3.65-7.89,4.5c-3.16,0.84-6.67,0.9-10.52,0.18l-23.18-4.37L800.39,1849.36z
				 M810.38,1855.86l11.33,2.13l16.96,29.77l-11.55-2.18L810.38,1855.86z"/>
			<path class="st14" d="M880.77,1836.78c6.31,0.72,11.71,2.51,16.2,5.37c4.49,2.86,7.83,6.52,10.02,10.99
				c2.19,4.47,2.96,9.46,2.33,14.98c-0.63,5.52-2.52,10.21-5.65,14.07c-3.14,3.86-7.22,6.68-12.24,8.45
				c-5.02,1.77-10.69,2.3-17,1.58l-25.06-2.86l6.34-55.45L880.77,1836.78z M859.52,1887.08l-4.81-5.79l21.37,2.44
				c4.24,0.48,8.04,0.11,11.4-1.13c3.36-1.24,6.08-3.2,8.16-5.88c2.08-2.68,3.34-5.92,3.77-9.72c0.44-3.84-0.05-7.3-1.48-10.36
				c-1.42-3.06-3.63-5.57-6.63-7.54s-6.61-3.19-10.85-3.67l-21.37-2.44l5.99-4.56L859.52,1887.08z"/>
			<path class="st14" d="M920.64,1840.49l9.8,0.62l-3.54,55.7l-9.8-0.62L920.64,1840.49z"/>
			<path class="st14" d="M974.93,1842.56l25.88,56.24l-10.49-0.17l-23.49-52.48l3.79,0.06l-25.17,51.69l-10.49-0.17l27.69-55.37
				L974.93,1842.56z M948.34,1885.15l0.13-8.11l38.99,0.63l-0.13,8.11L948.34,1885.15z"/>
			<path class="st14" d="M1037.15,1872.75c0.27,3.31,1.18,6.13,2.71,8.44c1.54,2.31,3.6,4.02,6.21,5.13s5.64,1.51,9.1,1.23
				c3.51-0.29,6.45-1.19,8.81-2.71c2.36-1.51,4.11-3.54,5.25-6.07c1.13-2.53,1.57-5.45,1.29-8.77l-2.61-31.74l9.79-0.81l2.64,32.11
				c0.4,4.89-0.36,9.28-2.28,13.14c-1.92,3.87-4.78,6.99-8.56,9.37c-3.79,2.38-8.33,3.78-13.62,4.22
				c-5.24,0.43-9.94-0.22-14.08-1.94c-4.15-1.72-7.49-4.34-10.02-7.84c-2.53-3.5-3.99-7.7-4.4-12.59l-2.64-32.11l9.79-0.81
				L1037.15,1872.75z"/>
			<path class="st14" d="M1146.21,1877.47l-3.9,1.07l-7.92-49.68l9.41-1.5l8.79,55.11l-12.35,1.97l-46.58-43.51l3.82-1.06
				l7.99,50.12l-9.41,1.5l-8.79-55.11l12.64-2.02L1146.21,1877.47z"/>
			<path class="st14" d="M1154.53,1824.73l9.6-2.05l11.67,54.58l-9.61,2.05L1154.53,1824.73z"/>
			<path class="st14" d="M1216.58,1862.97l-4.46,1.19l9.88-56.1l10.14-2.71l-11.61,60.87l-10.57,2.82l-40.44-46.96l10.21-2.73
				L1216.58,1862.97z"/>
			<path class="st14" d="M1257.14,1826.06l4.39,24.85l-6.23-3.68l40.95-14.1l2.76,8.02l-46.01,15.85l-4.86-27.84l-13.31-24.93
				l45.66-15.72l2.76,8.02l-40.6,13.98l2.64-6.73L1257.14,1826.06z M1286.55,1811.6l2.67,7.74l-36.87,12.7l-2.67-7.74
				L1286.55,1811.6z"/>
			<path class="st14" d="M1304.77,1805.88l20.92-8.81c3.02-1.27,5.12-2.96,6.3-5.08c1.18-2.11,1.27-4.36,0.27-6.74
				c-1.02-2.42-2.7-3.94-5.02-4.54c-2.33-0.61-5-0.27-8.02,1l-22.22,9.36l1.91-6.78l20.52,48.69l-9.05,3.81l-21.67-51.43
				l28.05-11.82c3.61-1.52,7.05-2.21,10.32-2.05c3.27,0.16,6.16,1.07,8.66,2.73c2.5,1.66,4.41,4.05,5.72,7.16
				c1.27,3.02,1.63,6,1.07,8.96c-0.56,2.95-1.92,5.66-4.09,8.1c-2.17,2.45-5.06,4.44-8.67,5.96l-21.74,9.16L1304.77,1805.88z
				 M1316.68,1805.79l10.63-4.48l30.58,15.46l-10.83,4.57L1316.68,1805.79z"/>
			<path class="st14" d="M1356.3,1797.48l8.9-4.49c1.27,1.86,2.99,3.19,5.14,3.99c2.16,0.8,4.59,1.03,7.31,0.69
				c2.72-0.34,5.58-1.27,8.59-2.79c4.47-2.26,7.66-4.74,9.57-7.46c1.91-2.71,2.26-5.27,1.05-7.66c-0.98-1.95-2.47-3.03-4.47-3.24
				c-2-0.21-5.09,0.43-9.28,1.93l-11.47,4.04c-6.43,2.24-11.55,2.96-15.38,2.14s-6.76-3.24-8.8-7.27c-1.54-3.06-1.96-6.17-1.25-9.33
				c0.71-3.16,2.44-6.2,5.19-9.12c2.75-2.92,6.39-5.52,10.9-7.8c4.47-2.26,8.77-3.59,12.9-4.01c4.12-0.42,7.82,0.04,11.07,1.37
				c3.26,1.33,5.78,3.54,7.56,6.64l-8.9,4.49c-1.12-1.66-2.63-2.81-4.54-3.46c-1.91-0.65-4.11-0.8-6.61-0.46
				c-2.49,0.34-5.18,1.24-8.06,2.69c-4.08,2.06-7,4.36-8.76,6.92c-1.76,2.56-2.07,4.99-0.9,7.29c0.89,1.77,2.3,2.77,4.22,3
				c1.92,0.23,4.8-0.32,8.63-1.65l11.67-3.97c4.79-1.64,8.74-2.59,11.85-2.86c3.12-0.27,5.67,0.2,7.66,1.38
				c1.99,1.19,3.68,3.16,5.06,5.9c1.61,3.19,2.04,6.47,1.3,9.85c-0.74,3.38-2.54,6.61-5.4,9.69c-2.86,3.08-6.64,5.81-11.33,8.18
				c-4.78,2.42-9.37,3.82-13.75,4.23s-8.28-0.14-11.7-1.64C1360.86,1803.21,1358.19,1800.8,1356.3,1797.48z"/>
			<path class="st14" d="M1394.25,1735.36l8.55-4.83l27.45,48.59l-8.55,4.83L1394.25,1735.36z"/>
			<path class="st14" d="M1408.37,1727.83l47.41-29.73l4.59,7.31l-47.41,29.73L1408.37,1727.83z M1430.32,1719.42l8.32-5.22
				l27.24,43.44l-8.32,5.22L1430.32,1719.42z"/>
			<path class="st14" d="M1456.2,1697.94l8.96-6.53l35.23,9.67l-4.27,3.11l1.56-36.5l8.96-6.53l-1.93,44.97l-5.01,3.74
				L1456.2,1697.94z M1510.37,1727.51l-15.7-21.52l7.94-5.79l15.7,21.53L1510.37,1727.51z"/>
		</g>
	</g>
	<g>
		<g>
			<polygon class="st1" points="451.3,625.35 1019.13,307.86 1146.61,383.53 653.35,659.83 655.04,751.36 			"/>
			<path d="M451.3,625.35l1.47,2.63l566.32-316.64l121.49,72.12L650.3,658.08l1.63,87.81L452.89,622.79L451.3,625.35l1.47,2.63
				L451.3,625.35l-1.59,2.56l208.44,128.92l-1.76-95.26l496.25-277.97l-133.47-79.23c-190.3,106.41-380.6,212.82-570.91,319.23
				c0.48,1.44,0.96,2.87,1.44,4.31L451.3,625.35z"/>
			<polygon class="st1" points="846.58,780.18 653.35,659.83 1212.72,346.24 1404.26,459.81 			"/>
			<path d="M1407.28,458.11c-64.79-38.41-129.73-76.93-194.52-115.34C1025.27,447.87,837.79,552.98,650.3,658.08
				c65.41,41.87,130.82,83.74,196.22,125.61l1.56-0.9l-1.5-2.61l1.59-2.56L659.27,659.97l553.41-310.25l185.61,110.05l-553.2,317.8
				l1.5,2.61l1.59-2.56l-1.59,2.56l1.5,2.61"/>
			<polygon class="st1" points="846.58,1341.25 846.58,780.18 653.35,659.83 655.01,1226.37 			"/>
			<polyline points="650.33,658.08 652,1228.08 849.6,1346.57 849.6,1341.25 846.58,1341.25 848.13,1338.67 658.02,1224.66 
				656.38,665.27 843.57,781.85 843.57,1341.25 846.58,1341.25 848.13,1338.67 846.58,1341.25 849.6,1341.25 849.6,778.51 
				653.43,656.33 			"/>
			<polygon class="st1" points="451.3,625.35 452.36,748.75 566.19,818.95 566.45,1049.78 452.05,983.14 451.3,1055.9 
				653.35,1178.52 655.04,751.36 			"/>
			<path d="M448.27,623.61l0.02,1.77l3.01-0.03l-1.59,2.56c66.92,41.83,133.83,83.66,200.75,125.49
				c-0.04,139.92-0.07,279.85-0.11,419.77l-196.02-118.96l0.68-65.86l114.45,66.68l-0.27-237.76l-113.83-70.22l-1.05-121.73
				l-3.01,0.03l-1.59,2.56l1.59-2.56l-3.01,0.03l1.08,125.06l113.81,70.2l0.25,223.9l-114.33-66.61l-0.83,79.66l208.07,126.27
				c0.09-145.17,0.19-290.34,0.28-435.51c-68.41-42.17-136.82-84.34-205.24-126.5"/>
			<polygon class="st10" points="452.36,748.75 566.19,818.95 566.45,1049.78 452.05,983.14 			"/>
			<polygon points="452.36,748.75 450.78,751.31 563.17,820.64 563.43,1044.54 455.07,981.41 455.38,748.75 452.36,748.75 
				450.78,751.31 452.36,748.75 449.35,748.74 449.04,984.87 569.47,1055.03 569.2,817.27 449.36,743.35 449.35,748.74 			"/>
			<polygon class="st1" points="1404.26,1017.49 1404.26,459.81 846.58,780.18 846.58,1341.25 			"/>
			<polyline points="1404.29,456.32 843.57,778.44 843.57,1346.48 1407.28,1019.23 1407.28,1017.49 1404.26,1017.49 
				1402.75,1014.88 849.6,1336.02 849.6,781.93 1401.25,465.02 1401.25,1017.49 1404.26,1017.49 1402.75,1014.88 1404.26,1017.49 
				1407.28,1017.49 1407.28,461.56 			"/>
			<polygon class="st10" points="1361.89,533.97 901.67,800.95 901.67,1257.34 1361.89,987.83 			"/>
			<polygon points="1361.89,533.97 1360.37,531.36 898.66,799.21 898.66,1262.6 1364.9,989.56 1364.9,528.74 1360.37,531.36 
				1361.89,533.97 1358.87,533.97 1358.87,986.1 904.69,1252.09 904.69,802.68 1363.4,536.58 1361.89,533.97 1358.87,533.97 			"/>
			<path class="st11" d="M901.67,800.95l427.16-247.8c9.92,63.99,17.14,139.77,16.53,224.92c-0.55,76.73-7.36,145.56-16.53,204.68
				c-141.59,80.93-283.18,161.86-424.77,242.79L901.67,800.95z"/>
			<path d="M901.67,800.95l1.51,2.61l427.16-247.8l-1.51-2.61l-2.98,0.46c9.51,61.31,16.53,133.47,16.53,214.34
				c0,3.35-0.01,6.71-0.04,10.09c-0.55,76.57-7.34,145.25-16.49,204.24l2.98,0.46l-1.5-2.62
				c-141.59,80.93-283.18,161.86-424.77,242.79l1.5,2.62l3.01-0.02l-2.39-424.59L901.67,800.95l1.51,2.61L901.67,800.95l-3.01,0.02
				l2.41,429.75l4.48-2.56c141.59-80.93,283.18-161.86,424.77-242.79l1.26-0.72l0.22-1.43c9.19-59.24,16.01-128.22,16.56-205.12
				c0.02-3.39,0.04-6.77,0.04-10.13c0-81.22-7.05-153.69-16.6-215.26l-0.68-4.36L898.65,799.22l0.01,1.75L901.67,800.95z"/>
			<polygon class="st1" points="471.97,1168.35 550.92,1116.36 653.35,1178.52 655.01,1226.37 846.58,1341.25 1404.26,1017.49 
				1404.26,961.55 1580.55,1068.34 938.12,1444.65 			"/>
			<path d="M1583.62,1066.68c-60.79-36.82-121.58-73.65-182.37-110.48c0,19.85,0,39.7,0,59.55l-554.64,321.99l-188.64-113.12
				l-1.66-47.84l-105.44-63.99c-27.3,17.98-54.6,35.95-81.9,53.93c0.49,1.41,0.98,2.81,1.48,4.22l1.54-2.59l1.66,2.52l77.36-50.94
				l99.4,60.32l1.66,47.86l194.5,116.64l560.72-325.52V966.9l167.38,101.4l-636.54,372.85l-464.62-275.39l-1.54,2.59l1.66,2.52
				l-1.66-2.52l-1.54,2.59l467.67,277.2c215.15-126.03,430.3-252.05,645.46-378.08"/>
			<path class="st10" d="M1031.46,1233.96l245.37-142.69c-0.42,22.47-5.6,39.98-11.39,52.98c-30.3,67.97-113.64,93.75-169.31,96.38
				C1068.04,1241.96,1045.21,1237.48,1031.46,1233.96z"/>
			<path d="M1031.46,1233.96l1.52,2.61l245.37-142.69l-1.52-2.61l-3.01-0.06c-0.41,22.03-5.48,39.12-11.13,51.81
				c-7.39,16.59-18.02,30.61-30.71,42.38c-19.02,17.66-42.69,30.25-66.8,38.65c-24.1,8.4-48.61,12.59-69.19,13.57
				c-3.42,0.16-6.75,0.24-10,0.24c-23.12,0-41.89-3.77-53.78-6.81L1031.46,1233.96l1.52,2.61L1031.46,1233.96l-0.75,2.92
				c12.21,3.12,31.51,7,55.28,7c3.34,0,6.78-0.08,10.29-0.24c28.22-1.34,63.3-8.5,95.34-23.99c16.01-7.74,31.27-17.57,44.47-29.83
				c13.2-12.25,24.36-26.95,32.11-44.35c5.93-13.3,11.23-31.25,11.65-54.15l0.1-5.35l-256.36,149.08l7.13,1.82L1031.46,1233.96z"/>
			<polygon class="st1" points="938.12,1444.65 1580.55,1068.34 1580.55,1320.91 938.12,1692.13 			"/>
			<path d="M1580.56,1064.84L935.1,1442.92v1.73h3.01l1.52,2.6l637.9-373.65v245.57l-636.4,367.74l0-242.26h-3.01l1.52,2.6
				l-1.52-2.6h-3.01c1,83.66,2,167.31,3,250.97c215.15-124.32,430.3-248.65,645.46-372.97c0-84.3,0-168.61,0-252.91
				c0-1.03,0-2.06,0-3.09"/>
			<path class="st11" d="M1545.21,1138.45c7.4,1.17,11.88,6.51,12.83,7.7c8.9,11.13,5.79,31-5.15,41.9
				c-1.34,1.33-12.1,12.05-23.26,8.4c-9.22-3.01-12.33-13.73-13.34-17.21c-3.04-10.46-0.65-22.86,7.28-31.35
				C1525.46,1145.86,1534.04,1136.68,1545.21,1138.45z"/>
			<path d="M1545.21,1138.45l-0.47,2.98c3.09,0.49,5.61,1.86,7.49,3.28c0.94,0.71,1.71,1.42,2.29,2.01c0.58,0.6,0.97,1.07,1.17,1.31
				c1.51,1.89,2.64,4.1,3.39,6.55c0.75,2.45,1.13,5.13,1.13,7.9c0,4.19-0.86,8.58-2.48,12.66c-1.62,4.08-4,7.82-6.97,10.77
				c-0.14,0.14-0.36,0.36-0.68,0.66c-1.11,1.05-3.36,3.02-6.19,4.67c-1.41,0.83-2.96,1.57-4.57,2.1c-1.61,0.53-3.27,0.84-4.92,0.84
				c-1.27,0-2.55-0.18-3.84-0.6c-1.85-0.6-3.38-1.58-4.72-2.82c-2-1.84-3.52-4.29-4.59-6.61c-0.54-1.16-0.96-2.28-1.3-3.27
				c-0.34-0.99-0.59-1.84-0.77-2.49c-0.77-2.64-1.15-5.42-1.15-8.24c0-7.29,2.6-14.71,7.75-20.2c0.42-0.45,1.13-1.21,2.13-2.13
				c1.49-1.37,3.59-3.05,6.08-4.35c2.49-1.31,5.33-2.23,8.38-2.23c0.78,0,1.57,0.06,2.39,0.19L1545.21,1138.45l0.47-2.98
				c-1.13-0.18-2.25-0.26-3.33-0.26c-2.84,0-5.48,0.57-7.84,1.43c-3.54,1.3-6.47,3.24-8.7,5.02c-1.11,0.89-2.06,1.75-2.81,2.48
				c-0.75,0.73-1.31,1.33-1.64,1.68c-6.29,6.74-9.37,15.62-9.37,24.32c0,3.37,0.46,6.72,1.39,9.92c0.25,0.88,0.67,2.29,1.29,3.95
				c0.94,2.49,2.35,5.56,4.57,8.42c1.11,1.43,2.43,2.8,3.99,3.99c1.57,1.19,3.39,2.2,5.46,2.87c1.93,0.63,3.85,0.9,5.71,0.9
				c2.76,0,5.35-0.59,7.69-1.46c3.51-1.3,6.48-3.22,8.72-4.91c1.12-0.85,2.05-1.65,2.76-2.29c0.71-0.64,1.22-1.15,1.44-1.37
				c3.62-3.61,6.41-8.05,8.31-12.82c1.9-4.77,2.91-9.88,2.91-14.89c0-3.31-0.45-6.58-1.4-9.67c-0.95-3.09-2.41-6-4.45-8.54
				c-0.28-0.34-0.8-0.99-1.56-1.76c-1.14-1.16-2.8-2.65-4.99-3.99c-2.19-1.34-4.93-2.53-8.16-3.04L1545.21,1138.45z"/>
			<polygon class="st10" points="979.22,1460.75 1304.68,1272.6 1304.68,1398.46 979.22,1594.24 			"/>
			<polygon points="979.22,1460.75 980.73,1463.36 1301.66,1277.82 1301.66,1396.75 982.24,1588.91 982.24,1460.75 979.22,1460.75 
				980.73,1463.36 979.22,1460.75 976.21,1460.75 976.21,1599.57 1307.69,1400.16 1307.69,1267.38 976.21,1459.01 976.21,1460.75 
							"/>
			<polygon class="st1" points="1003.38,1465.84 1290.69,1300.57 1290.69,1348.88 1003.38,1517.96 			"/>
			<polygon points="1003.38,1465.84 1004.88,1468.45 1287.68,1305.78 1287.68,1347.15 1006.39,1512.69 1006.39,1465.84 
				1003.38,1465.84 1004.88,1468.45 1003.38,1465.84 1000.36,1465.84 1000.36,1523.23 1293.71,1350.6 1293.71,1295.36 
				1000.36,1464.09 1000.36,1465.84 			"/>
			<polygon class="st1" points="1003.38,1535.76 1056.77,1503.98 1056.77,1530.67 1003.38,1563.73 			"/>
			<polygon points="1003.38,1535.76 1004.92,1538.35 1053.76,1509.28 1053.76,1529 1006.39,1558.32 1006.39,1535.76 
				1003.38,1535.76 1004.92,1538.35 1003.38,1535.76 1000.36,1535.76 1000.36,1569.14 1059.79,1532.35 1059.79,1498.68 
				1000.36,1534.05 1000.36,1535.76 			"/>
			<polygon class="st1" points="471.97,1168.35 938.12,1444.65 938.12,1692.13 471.97,1419.22 			"/>
			<path d="M468.96,1166.73v1.62h3.01l-1.54,2.59l464.67,275.42l0,240.51L474.99,1417.5l0-249.14h-3.01l-1.54,2.59l1.54-2.59h-3.01
				v252.6c156.38,91.56,312.77,183.11,469.15,274.67c1.01-84.23,2.02-168.46,3.02-252.68L471.89,1164.8"/>
		</g>
		<g>
			<path d="M1319.09,688.19c-0.14-0.14-0.28-0.27-0.42-0.4c-0.73-1.36-1.61-2.58-2.62-3.63c-0.14-0.14-0.28-0.27-0.42-0.4
				c-0.73-1.36-1.61-2.58-2.62-3.63c-0.14-0.14-0.28-0.27-0.42-0.4c-0.73-1.36-1.61-2.59-2.62-3.63c-0.14-0.14-0.28-0.27-0.42-0.4
				c-0.73-1.36-1.61-2.59-2.62-3.64c-0.14-0.14-0.28-0.27-0.42-0.4c-0.74-1.36-1.61-2.59-2.63-3.64c-0.14-0.14-0.28-0.27-0.42-0.4
				c-0.74-1.36-1.61-2.59-2.63-3.64c-3.84-3.97-9-4.76-13.51-2.08l-64.59,38.39c-14.16,8.41-25.83,20.4-34.76,35.67
				c-0.73-1.27-1.59-2.42-2.56-3.4c-3.89-3.93-9.06-4.7-13.55-2.03l-49.08,29.17c-22.12,13.15-39.67,33.7-52.23,60.77
				c-0.4-0.51-0.82-0.99-1.27-1.43c-0.14-0.14-0.29-0.26-0.43-0.39c-0.77-1.33-1.67-2.54-2.71-3.56c-0.14-0.14-0.29-0.26-0.43-0.39
				c-0.77-1.33-1.67-2.54-2.71-3.56c-0.14-0.14-0.29-0.26-0.43-0.39c-0.77-1.33-1.67-2.54-2.72-3.57c-3.94-3.88-9.13-4.64-13.6-1.98
				l-63.97,38.03c-15.67,9.31-28.13,22.99-37.02,40.63c-8,15.86-12.81,34.26-14.31,54.65c-1.8,24.45,2.14,41.8,11.68,51.64
				c0.97,1.38,2.03,2.66,3.16,3.83c0.97,1.38,2.02,2.66,3.16,3.82c0.97,1.38,2.02,2.65,3.15,3.82c0.97,1.38,2.02,2.65,3.15,3.82
				c0.97,1.38,2.02,2.65,3.15,3.81c0.78,1.1,1.61,2.14,2.49,3.11l-27.75,16.41c-4.36,2.58-7.32,8-7.78,14.25l-2.51,33.98
				c-0.46,6.24,1.67,12.35,5.59,16.01c0.14,0.13,0.28,0.25,0.43,0.37c0.77,1.27,1.68,2.41,2.71,3.38c0.14,0.13,0.28,0.25,0.43,0.37
				c0.77,1.26,1.67,2.41,2.71,3.37c0.14,0.13,0.28,0.25,0.43,0.37c0.77,1.26,1.67,2.4,2.71,3.37c0.14,0.13,0.28,0.25,0.43,0.37
				c0.77,1.26,1.67,2.4,2.7,3.37c0.14,0.13,0.28,0.25,0.43,0.37c0.77,1.26,1.67,2.4,2.7,3.36c0.14,0.13,0.28,0.25,0.43,0.37
				c0.77,1.26,1.67,2.4,2.7,3.36c3.89,3.64,8.98,4.3,13.33,1.74l68.64-40.44c23.54-13.87,40.03-37.59,47.82-68.26
				c0.61,0.78,1.25,1.52,1.9,2.23c1.42,1.98,2.96,3.78,4.63,5.39c12.24,11.79,29.19,11.41,50.42-1.09l47.96-28.25
				c2.39-1.41,4.38-3.67,5.8-6.45c2.47,0.49,5.05,0.06,7.44-1.35l69.28-40.82c30.16-17.77,49.36-51.76,54.08-95.95
				c2.68-25.08-0.63-42.99-9.85-53.22c-0.92-1.42-1.93-2.74-3.01-3.95c-0.92-1.42-1.93-2.74-3.02-3.95
				c-0.93-1.42-1.93-2.74-3.02-3.95c-0.93-1.42-1.93-2.75-3.02-3.96c-0.93-1.43-1.93-2.75-3.02-3.96c-0.43-0.66-0.87-1.3-1.33-1.91
				l19.84-11.75c4.45-2.63,7.6-8.24,8.29-14.73l3.77-35.6C1324.83,698.62,1322.91,692.13,1319.09,688.19z M1169.75,888.86
				c-2.41,1.42-4.42,3.72-5.84,6.55c-2.5-0.51-5.1-0.08-7.51,1.35l-39.75,23.51c1.88-18.77,5.3-33.2,10.46-44
				c5.06-10.62,12.01-18.29,21.85-24.12l24.04-14.24c1.78,4.63,4.13,8.54,7.04,11.69c0.94,1.41,1.96,2.71,3.07,3.91
				c0.94,1.41,1.96,2.71,3.06,3.91c0.94,1.41,1.96,2.71,3.06,3.9c0.94,1.41,1.96,2.71,3.06,3.9c0.94,1.4,1.95,2.7,3.05,3.9
				c0.76,1.13,1.56,2.2,2.42,3.19L1169.75,888.86z"/>
			<path class="st4" d="M1049.45,957.3c-2.8,33.2-16.05,64.15-44.33,80.84l-68.9,40.67l2.55-33.95l69.85-41.27
				c11.78-6.96,17.96-20.29,19.14-34.57c1.06-12.85-2.23-22.04-17.58-12.95l-29.01,17.17c-33.21,19.66-38.75-5.23-36.69-32.8
				c2.47-33.02,15.47-63.96,43.43-80.57l63.87-37.94l-2.94,35.19l-64.42,38.22c-11.34,6.73-17.11,19.45-18.17,33.31
				c-0.93,12.06,2.08,21.2,16.71,12.54l29.28-17.34C1046.38,903.61,1051.84,928.9,1049.45,957.3z M1084.41,897.88
				c3.98-45.88,16.31-71.55,40.61-85.96l48.85-28.98l3.33-35.51l-49,29.11c-36.74,21.82-59.96,67.1-65.68,134.31
				c-5.62,66.14,11.51,86.63,47.78,65.21l48.14-28.41l3.23-34.5l-48.29,28.53C1089.18,955.98,1080.49,943.11,1084.41,897.88z
				 M1223.75,753.34l65.04-38.59l3.69-35.8l-64.49,38.3c-28.23,16.77-41.85,48.19-45.03,81.78c-2.65,28.04,2.33,53.39,35.86,33.55
				l29.28-17.33c15.49-9.17,18.58,0.19,17.24,13.26c-1.48,14.52-7.93,28.05-19.82,35.08l-70.51,41.66l-3.27,34.53l69.55-41.05
				c28.54-16.85,42.43-48.28,45.93-82.05c3-28.89-1.89-54.65-36.36-34.23l-29.55,17.51c-14.76,8.75-17.57-0.57-16.38-12.84
				C1206.28,773.05,1212.3,760.13,1223.75,753.34z"/>
		</g>
	</g>
</g>
</svg>
